# xmcd CD database file
#
# Track frame offsets:
#	150
#	30175
#	45307
#	73867
#	97140
#	118757
#	147490
#	184827
#	201230
#	219517
#	239772
#	257912
#
# Disc length: 3685 seconds
#
# Revision: 0
# Processed by: cddbd v1.5.2PL0 Copyright (c) Steve Scherf et al.
# Submitted via: CDex 1.51
#
DISCID=ba0e630c
DTITLE=The Columbus Jazz Orchestra - Big Band, Swing, Blues and All That Jazz
DYEAR=2002
DGENRE=Jazz
TTITLE0=Bebop Charlie
TTITLE1=Woody 'n' You
TTITLE2=Things Ain't What They Used To Be
TTITLE3=Teach Me Tonight
TTITLE4=Manteca
TTITLE5=Back At The Chicken Shack
TTITLE6='Round Midnight
TTITLE7=Horse Feathers
TTITLE8=When Lights Are Low
TTITLE9=Cherokee
TTITLE10=My Foolish Heart
TTITLE11=Lover, Come Back To Me
EXTD=YEAR: 2002
EXTT0=
EXTT1=
EXTT2=
EXTT3=
EXTT4=
EXTT5=
EXTT6=
EXTT7=
EXTT8=
EXTT9=
EXTT10=
EXTT11=
PLAYORDER=
